<mxfile host="app.diagrams.net" modified="2023-10-23T18:14:32.839Z" agent="Mozilla/5.0 (Windows NT 10.0; Win64; x64) AppleWebKit/537.36 (KHTML, like Gecko) Chrome/118.0.0.0 Safari/537.36" etag="g-PP7KcWa3al1niM4c0V" version="22.0.6" type="github">
  <diagram id="C5RBs43oDa-KdzZeNtuy" name="Page-1">
    <mxGraphModel dx="1707" dy="1615" grid="1" gridSize="10" guides="1" tooltips="1" connect="1" arrows="1" fold="1" page="1" pageScale="1" pageWidth="827" pageHeight="1169" math="0" shadow="0">
      <root>
        <mxCell id="WIyWlLk6GJQsqaUBKTNV-0" />
        <mxCell id="WIyWlLk6GJQsqaUBKTNV-1" parent="WIyWlLk6GJQsqaUBKTNV-0" />
        <mxCell id="zkfFHV4jXpPFQw0GAbJ--0" value="User" style="swimlane;fontStyle=2;align=center;verticalAlign=top;childLayout=stackLayout;horizontal=1;startSize=26;horizontalStack=0;resizeParent=1;resizeLast=0;collapsible=1;marginBottom=0;rounded=0;shadow=0;strokeWidth=1;" parent="WIyWlLk6GJQsqaUBKTNV-1" vertex="1">
          <mxGeometry x="80" y="-508" width="190" height="398" as="geometry">
            <mxRectangle x="230" y="140" width="160" height="26" as="alternateBounds" />
          </mxGeometry>
        </mxCell>
        <mxCell id="zkfFHV4jXpPFQw0GAbJ--1" value="- Image: String" style="text;align=left;verticalAlign=top;spacingLeft=4;spacingRight=4;overflow=hidden;rotatable=0;points=[[0,0.5],[1,0.5]];portConstraint=eastwest;" parent="zkfFHV4jXpPFQw0GAbJ--0" vertex="1">
          <mxGeometry y="26" width="190" height="26" as="geometry" />
        </mxCell>
        <mxCell id="o4Rcnv4ikrtxwTk4Mw7k-0" value="- Name: String" style="text;align=left;verticalAlign=top;spacingLeft=4;spacingRight=4;overflow=hidden;rotatable=0;points=[[0,0.5],[1,0.5]];portConstraint=eastwest;" vertex="1" parent="zkfFHV4jXpPFQw0GAbJ--0">
          <mxGeometry y="52" width="190" height="26" as="geometry" />
        </mxCell>
        <mxCell id="zkfFHV4jXpPFQw0GAbJ--2" value="- Surname: String" style="text;align=left;verticalAlign=top;spacingLeft=4;spacingRight=4;overflow=hidden;rotatable=0;points=[[0,0.5],[1,0.5]];portConstraint=eastwest;rounded=0;shadow=0;html=0;" parent="zkfFHV4jXpPFQw0GAbJ--0" vertex="1">
          <mxGeometry y="78" width="190" height="26" as="geometry" />
        </mxCell>
        <mxCell id="zkfFHV4jXpPFQw0GAbJ--3" value="- Email Address: String" style="text;align=left;verticalAlign=top;spacingLeft=4;spacingRight=4;overflow=hidden;rotatable=0;points=[[0,0.5],[1,0.5]];portConstraint=eastwest;rounded=0;shadow=0;html=0;" parent="zkfFHV4jXpPFQw0GAbJ--0" vertex="1">
          <mxGeometry y="104" width="190" height="26" as="geometry" />
        </mxCell>
        <mxCell id="VuXMi50tS37v2kmILsje-2" value="- Password: String" style="text;align=left;verticalAlign=top;spacingLeft=4;spacingRight=4;overflow=hidden;rotatable=0;points=[[0,0.5],[1,0.5]];portConstraint=eastwest;rounded=0;shadow=0;html=0;" parent="zkfFHV4jXpPFQw0GAbJ--0" vertex="1">
          <mxGeometry y="130" width="190" height="26" as="geometry" />
        </mxCell>
        <mxCell id="zkfFHV4jXpPFQw0GAbJ--4" value="" style="line;html=1;strokeWidth=1;align=left;verticalAlign=middle;spacingTop=-1;spacingLeft=3;spacingRight=3;rotatable=0;labelPosition=right;points=[];portConstraint=eastwest;" parent="zkfFHV4jXpPFQw0GAbJ--0" vertex="1">
          <mxGeometry y="156" width="190" height="8" as="geometry" />
        </mxCell>
        <mxCell id="zkfFHV4jXpPFQw0GAbJ--5" value="- Register(): Boolean" style="text;align=left;verticalAlign=top;spacingLeft=4;spacingRight=4;overflow=hidden;rotatable=0;points=[[0,0.5],[1,0.5]];portConstraint=eastwest;" parent="zkfFHV4jXpPFQw0GAbJ--0" vertex="1">
          <mxGeometry y="164" width="190" height="26" as="geometry" />
        </mxCell>
        <mxCell id="VuXMi50tS37v2kmILsje-4" value="- Login(): Boolean" style="text;align=left;verticalAlign=top;spacingLeft=4;spacingRight=4;overflow=hidden;rotatable=0;points=[[0,0.5],[1,0.5]];portConstraint=eastwest;" parent="zkfFHV4jXpPFQw0GAbJ--0" vertex="1">
          <mxGeometry y="190" width="190" height="26" as="geometry" />
        </mxCell>
        <mxCell id="VuXMi50tS37v2kmILsje-28" value="- logout(): Boolean" style="text;align=left;verticalAlign=top;spacingLeft=4;spacingRight=4;overflow=hidden;rotatable=0;points=[[0,0.5],[1,0.5]];portConstraint=eastwest;" parent="zkfFHV4jXpPFQw0GAbJ--0" vertex="1">
          <mxGeometry y="216" width="190" height="26" as="geometry" />
        </mxCell>
        <mxCell id="o4Rcnv4ikrtxwTk4Mw7k-19" value="- addMedicine(): Boolean" style="text;align=left;verticalAlign=top;spacingLeft=4;spacingRight=4;overflow=hidden;rotatable=0;points=[[0,0.5],[1,0.5]];portConstraint=eastwest;" vertex="1" parent="zkfFHV4jXpPFQw0GAbJ--0">
          <mxGeometry y="242" width="190" height="26" as="geometry" />
        </mxCell>
        <mxCell id="o4Rcnv4ikrtxwTk4Mw7k-20" value="- viewMedicine(): Array" style="text;align=left;verticalAlign=top;spacingLeft=4;spacingRight=4;overflow=hidden;rotatable=0;points=[[0,0.5],[1,0.5]];portConstraint=eastwest;" vertex="1" parent="zkfFHV4jXpPFQw0GAbJ--0">
          <mxGeometry y="268" width="190" height="26" as="geometry" />
        </mxCell>
        <mxCell id="o4Rcnv4ikrtxwTk4Mw7k-21" value="- medicineSuggestions(): Array" style="text;align=left;verticalAlign=top;spacingLeft=4;spacingRight=4;overflow=hidden;rotatable=0;points=[[0,0.5],[1,0.5]];portConstraint=eastwest;" vertex="1" parent="zkfFHV4jXpPFQw0GAbJ--0">
          <mxGeometry y="294" width="190" height="26" as="geometry" />
        </mxCell>
        <mxCell id="o4Rcnv4ikrtxwTk4Mw7k-23" value="- addPrescription(): Boolean" style="text;align=left;verticalAlign=top;spacingLeft=4;spacingRight=4;overflow=hidden;rotatable=0;points=[[0,0.5],[1,0.5]];portConstraint=eastwest;" vertex="1" parent="zkfFHV4jXpPFQw0GAbJ--0">
          <mxGeometry y="320" width="190" height="26" as="geometry" />
        </mxCell>
        <mxCell id="o4Rcnv4ikrtxwTk4Mw7k-24" value="- scanPrescription(): Boolean" style="text;align=left;verticalAlign=top;spacingLeft=4;spacingRight=4;overflow=hidden;rotatable=0;points=[[0,0.5],[1,0.5]];portConstraint=eastwest;" vertex="1" parent="zkfFHV4jXpPFQw0GAbJ--0">
          <mxGeometry y="346" width="190" height="26" as="geometry" />
        </mxCell>
        <mxCell id="o4Rcnv4ikrtxwTk4Mw7k-26" value="- viewPrescription(): Array" style="text;align=left;verticalAlign=top;spacingLeft=4;spacingRight=4;overflow=hidden;rotatable=0;points=[[0,0.5],[1,0.5]];portConstraint=eastwest;" vertex="1" parent="zkfFHV4jXpPFQw0GAbJ--0">
          <mxGeometry y="372" width="190" height="26" as="geometry" />
        </mxCell>
        <mxCell id="zkfFHV4jXpPFQw0GAbJ--17" value="Medicine" style="swimlane;fontStyle=0;align=center;verticalAlign=top;childLayout=stackLayout;horizontal=1;startSize=26;horizontalStack=0;resizeParent=1;resizeLast=0;collapsible=1;marginBottom=0;rounded=0;shadow=0;strokeWidth=1;" parent="WIyWlLk6GJQsqaUBKTNV-1" vertex="1">
          <mxGeometry x="175" y="-20" width="190" height="405" as="geometry">
            <mxRectangle x="550" y="140" width="160" height="26" as="alternateBounds" />
          </mxGeometry>
        </mxCell>
        <mxCell id="zkfFHV4jXpPFQw0GAbJ--18" value="- MedicineImage: jpg" style="text;align=left;verticalAlign=top;spacingLeft=4;spacingRight=4;overflow=hidden;rotatable=0;points=[[0,0.5],[1,0.5]];portConstraint=eastwest;" parent="zkfFHV4jXpPFQw0GAbJ--17" vertex="1">
          <mxGeometry y="26" width="190" height="25" as="geometry" />
        </mxCell>
        <mxCell id="o4Rcnv4ikrtxwTk4Mw7k-27" value="- MedicineName: String" style="text;align=left;verticalAlign=top;spacingLeft=4;spacingRight=4;overflow=hidden;rotatable=0;points=[[0,0.5],[1,0.5]];portConstraint=eastwest;" vertex="1" parent="zkfFHV4jXpPFQw0GAbJ--17">
          <mxGeometry y="51" width="190" height="25" as="geometry" />
        </mxCell>
        <mxCell id="o4Rcnv4ikrtxwTk4Mw7k-31" value="- MedicineType: String" style="text;align=left;verticalAlign=top;spacingLeft=4;spacingRight=4;overflow=hidden;rotatable=0;points=[[0,0.5],[1,0.5]];portConstraint=eastwest;" vertex="1" parent="zkfFHV4jXpPFQw0GAbJ--17">
          <mxGeometry y="76" width="190" height="25" as="geometry" />
        </mxCell>
        <mxCell id="o4Rcnv4ikrtxwTk4Mw7k-32" value="- Dosage: Number" style="text;align=left;verticalAlign=top;spacingLeft=4;spacingRight=4;overflow=hidden;rotatable=0;points=[[0,0.5],[1,0.5]];portConstraint=eastwest;" vertex="1" parent="zkfFHV4jXpPFQw0GAbJ--17">
          <mxGeometry y="101" width="190" height="25" as="geometry" />
        </mxCell>
        <mxCell id="zkfFHV4jXpPFQw0GAbJ--19" value="- MfgDate: Date" style="text;align=left;verticalAlign=top;spacingLeft=4;spacingRight=4;overflow=hidden;rotatable=0;points=[[0,0.5],[1,0.5]];portConstraint=eastwest;rounded=0;shadow=0;html=0;" parent="zkfFHV4jXpPFQw0GAbJ--17" vertex="1">
          <mxGeometry y="126" width="190" height="25" as="geometry" />
        </mxCell>
        <mxCell id="o4Rcnv4ikrtxwTk4Mw7k-30" value="- ExpDate: Date" style="text;align=left;verticalAlign=top;spacingLeft=4;spacingRight=4;overflow=hidden;rotatable=0;points=[[0,0.5],[1,0.5]];portConstraint=eastwest;rounded=0;shadow=0;html=0;" vertex="1" parent="zkfFHV4jXpPFQw0GAbJ--17">
          <mxGeometry y="151" width="190" height="25" as="geometry" />
        </mxCell>
        <mxCell id="o4Rcnv4ikrtxwTk4Mw7k-34" value="- Frequency: String" style="text;align=left;verticalAlign=top;spacingLeft=4;spacingRight=4;overflow=hidden;rotatable=0;points=[[0,0.5],[1,0.5]];portConstraint=eastwest;rounded=0;shadow=0;html=0;" vertex="1" parent="zkfFHV4jXpPFQw0GAbJ--17">
          <mxGeometry y="176" width="190" height="25" as="geometry" />
        </mxCell>
        <mxCell id="o4Rcnv4ikrtxwTk4Mw7k-35" value="- TimePerDay: String" style="text;align=left;verticalAlign=top;spacingLeft=4;spacingRight=4;overflow=hidden;rotatable=0;points=[[0,0.5],[1,0.5]];portConstraint=eastwest;rounded=0;shadow=0;html=0;" vertex="1" parent="zkfFHV4jXpPFQw0GAbJ--17">
          <mxGeometry y="201" width="190" height="25" as="geometry" />
        </mxCell>
        <mxCell id="o4Rcnv4ikrtxwTk4Mw7k-36" value="- SpecialInstructions: String" style="text;align=left;verticalAlign=top;spacingLeft=4;spacingRight=4;overflow=hidden;rotatable=0;points=[[0,0.5],[1,0.5]];portConstraint=eastwest;rounded=0;shadow=0;html=0;" vertex="1" parent="zkfFHV4jXpPFQw0GAbJ--17">
          <mxGeometry y="226" width="190" height="25" as="geometry" />
        </mxCell>
        <mxCell id="o4Rcnv4ikrtxwTk4Mw7k-37" value="- DoctorName: String" style="text;align=left;verticalAlign=top;spacingLeft=4;spacingRight=4;overflow=hidden;rotatable=0;points=[[0,0.5],[1,0.5]];portConstraint=eastwest;rounded=0;shadow=0;html=0;" vertex="1" parent="zkfFHV4jXpPFQw0GAbJ--17">
          <mxGeometry y="251" width="190" height="25" as="geometry" />
        </mxCell>
        <mxCell id="o4Rcnv4ikrtxwTk4Mw7k-38" value="- DoctorContact: Number" style="text;align=left;verticalAlign=top;spacingLeft=4;spacingRight=4;overflow=hidden;rotatable=0;points=[[0,0.5],[1,0.5]];portConstraint=eastwest;rounded=0;shadow=0;html=0;" vertex="1" parent="zkfFHV4jXpPFQw0GAbJ--17">
          <mxGeometry y="276" width="190" height="25" as="geometry" />
        </mxCell>
        <mxCell id="o4Rcnv4ikrtxwTk4Mw7k-39" value="- NotesOrComments: String" style="text;align=left;verticalAlign=top;spacingLeft=4;spacingRight=4;overflow=hidden;rotatable=0;points=[[0,0.5],[1,0.5]];portConstraint=eastwest;rounded=0;shadow=0;html=0;" vertex="1" parent="zkfFHV4jXpPFQw0GAbJ--17">
          <mxGeometry y="301" width="190" height="25" as="geometry" />
        </mxCell>
        <mxCell id="zkfFHV4jXpPFQw0GAbJ--20" value="- Quantity: Number" style="text;align=left;verticalAlign=top;spacingLeft=4;spacingRight=4;overflow=hidden;rotatable=0;points=[[0,0.5],[1,0.5]];portConstraint=eastwest;rounded=0;shadow=0;html=0;" parent="zkfFHV4jXpPFQw0GAbJ--17" vertex="1">
          <mxGeometry y="326" width="190" height="21" as="geometry" />
        </mxCell>
        <mxCell id="o4Rcnv4ikrtxwTk4Mw7k-40" value="" style="line;html=1;strokeWidth=1;align=left;verticalAlign=middle;spacingTop=-1;spacingLeft=3;spacingRight=3;rotatable=0;labelPosition=right;points=[];portConstraint=eastwest;" vertex="1" parent="zkfFHV4jXpPFQw0GAbJ--17">
          <mxGeometry y="347" width="190" height="8" as="geometry" />
        </mxCell>
        <mxCell id="o4Rcnv4ikrtxwTk4Mw7k-61" value="- getDataFromOCR(): String" style="text;align=left;verticalAlign=top;spacingLeft=4;spacingRight=4;overflow=hidden;rotatable=0;points=[[0,0.5],[1,0.5]];portConstraint=eastwest;rounded=0;shadow=0;html=0;" vertex="1" parent="zkfFHV4jXpPFQw0GAbJ--17">
          <mxGeometry y="355" width="190" height="25" as="geometry" />
        </mxCell>
        <mxCell id="o4Rcnv4ikrtxwTk4Mw7k-62" value="- storeDataToFirebase(): Boolean" style="text;align=left;verticalAlign=top;spacingLeft=4;spacingRight=4;overflow=hidden;rotatable=0;points=[[0,0.5],[1,0.5]];portConstraint=eastwest;rounded=0;shadow=0;html=0;" vertex="1" parent="zkfFHV4jXpPFQw0GAbJ--17">
          <mxGeometry y="380" width="190" height="25" as="geometry" />
        </mxCell>
        <mxCell id="VuXMi50tS37v2kmILsje-19" value="1..*" style="resizable=0;align=left;verticalAlign=bottom;labelBackgroundColor=none;fontSize=12;direction=south;" parent="WIyWlLk6GJQsqaUBKTNV-1" connectable="0" vertex="1">
          <mxGeometry x="210" y="-70" as="geometry" />
        </mxCell>
        <mxCell id="mE6UJYv_CZvFH5wL21DU-5" value="Login" style="swimlane;fontStyle=0;align=center;verticalAlign=top;childLayout=stackLayout;horizontal=1;startSize=26;horizontalStack=0;resizeParent=1;resizeLast=0;collapsible=1;marginBottom=0;rounded=0;shadow=0;strokeWidth=1;" parent="WIyWlLk6GJQsqaUBKTNV-1" vertex="1">
          <mxGeometry x="399" y="-290" width="180" height="120" as="geometry">
            <mxRectangle x="510" y="80" width="160" height="26" as="alternateBounds" />
          </mxGeometry>
        </mxCell>
        <mxCell id="mE6UJYv_CZvFH5wL21DU-7" value="- Email: String" style="text;align=left;verticalAlign=top;spacingLeft=4;spacingRight=4;overflow=hidden;rotatable=0;points=[[0,0.5],[1,0.5]];portConstraint=eastwest;rounded=0;shadow=0;html=0;" parent="mE6UJYv_CZvFH5wL21DU-5" vertex="1">
          <mxGeometry y="26" width="180" height="26" as="geometry" />
        </mxCell>
        <mxCell id="mE6UJYv_CZvFH5wL21DU-10" value="- Password: String" style="text;align=left;verticalAlign=top;spacingLeft=4;spacingRight=4;overflow=hidden;rotatable=0;points=[[0,0.5],[1,0.5]];portConstraint=eastwest;rounded=0;shadow=0;html=0;" parent="mE6UJYv_CZvFH5wL21DU-5" vertex="1">
          <mxGeometry y="52" width="180" height="26" as="geometry" />
        </mxCell>
        <mxCell id="mE6UJYv_CZvFH5wL21DU-11" value="" style="line;html=1;strokeWidth=1;align=left;verticalAlign=middle;spacingTop=-1;spacingLeft=3;spacingRight=3;rotatable=0;labelPosition=right;points=[];portConstraint=eastwest;" parent="mE6UJYv_CZvFH5wL21DU-5" vertex="1">
          <mxGeometry y="78" width="180" height="8" as="geometry" />
        </mxCell>
        <mxCell id="mE6UJYv_CZvFH5wL21DU-14" value="- validateDetails(): Boolean" style="text;align=left;verticalAlign=top;spacingLeft=4;spacingRight=4;overflow=hidden;rotatable=0;points=[[0,0.5],[1,0.5]];portConstraint=eastwest;" parent="mE6UJYv_CZvFH5wL21DU-5" vertex="1">
          <mxGeometry y="86" width="180" height="26" as="geometry" />
        </mxCell>
        <mxCell id="o4Rcnv4ikrtxwTk4Mw7k-6" value="0..*" style="resizable=0;align=left;verticalAlign=bottom;labelBackgroundColor=none;fontSize=12;" connectable="0" vertex="1" parent="WIyWlLk6GJQsqaUBKTNV-1">
          <mxGeometry x="240" y="-20" as="geometry" />
        </mxCell>
        <mxCell id="o4Rcnv4ikrtxwTk4Mw7k-7" value="Register" style="swimlane;fontStyle=2;align=center;verticalAlign=top;childLayout=stackLayout;horizontal=1;startSize=26;horizontalStack=0;resizeParent=1;resizeLast=0;collapsible=1;marginBottom=0;rounded=0;shadow=0;strokeWidth=1;" vertex="1" parent="WIyWlLk6GJQsqaUBKTNV-1">
          <mxGeometry x="365" y="-550" width="193" height="242" as="geometry">
            <mxRectangle x="230" y="140" width="160" height="26" as="alternateBounds" />
          </mxGeometry>
        </mxCell>
        <mxCell id="o4Rcnv4ikrtxwTk4Mw7k-8" value="- Image: String" style="text;align=left;verticalAlign=top;spacingLeft=4;spacingRight=4;overflow=hidden;rotatable=0;points=[[0,0.5],[1,0.5]];portConstraint=eastwest;" vertex="1" parent="o4Rcnv4ikrtxwTk4Mw7k-7">
          <mxGeometry y="26" width="193" height="26" as="geometry" />
        </mxCell>
        <mxCell id="o4Rcnv4ikrtxwTk4Mw7k-9" value="- Name: String" style="text;align=left;verticalAlign=top;spacingLeft=4;spacingRight=4;overflow=hidden;rotatable=0;points=[[0,0.5],[1,0.5]];portConstraint=eastwest;" vertex="1" parent="o4Rcnv4ikrtxwTk4Mw7k-7">
          <mxGeometry y="52" width="193" height="26" as="geometry" />
        </mxCell>
        <mxCell id="o4Rcnv4ikrtxwTk4Mw7k-10" value="- Surname: String" style="text;align=left;verticalAlign=top;spacingLeft=4;spacingRight=4;overflow=hidden;rotatable=0;points=[[0,0.5],[1,0.5]];portConstraint=eastwest;rounded=0;shadow=0;html=0;" vertex="1" parent="o4Rcnv4ikrtxwTk4Mw7k-7">
          <mxGeometry y="78" width="193" height="26" as="geometry" />
        </mxCell>
        <mxCell id="o4Rcnv4ikrtxwTk4Mw7k-11" value="- EmailAddress: String" style="text;align=left;verticalAlign=top;spacingLeft=4;spacingRight=4;overflow=hidden;rotatable=0;points=[[0,0.5],[1,0.5]];portConstraint=eastwest;rounded=0;shadow=0;html=0;" vertex="1" parent="o4Rcnv4ikrtxwTk4Mw7k-7">
          <mxGeometry y="104" width="193" height="26" as="geometry" />
        </mxCell>
        <mxCell id="o4Rcnv4ikrtxwTk4Mw7k-12" value="- Password: String" style="text;align=left;verticalAlign=top;spacingLeft=4;spacingRight=4;overflow=hidden;rotatable=0;points=[[0,0.5],[1,0.5]];portConstraint=eastwest;rounded=0;shadow=0;html=0;" vertex="1" parent="o4Rcnv4ikrtxwTk4Mw7k-7">
          <mxGeometry y="130" width="193" height="26" as="geometry" />
        </mxCell>
        <mxCell id="o4Rcnv4ikrtxwTk4Mw7k-13" value="- ConfirmPassword: String" style="text;align=left;verticalAlign=top;spacingLeft=4;spacingRight=4;overflow=hidden;rotatable=0;points=[[0,0.5],[1,0.5]];portConstraint=eastwest;rounded=0;shadow=0;html=0;" vertex="1" parent="o4Rcnv4ikrtxwTk4Mw7k-7">
          <mxGeometry y="156" width="193" height="26" as="geometry" />
        </mxCell>
        <mxCell id="o4Rcnv4ikrtxwTk4Mw7k-14" value="" style="line;html=1;strokeWidth=1;align=left;verticalAlign=middle;spacingTop=-1;spacingLeft=3;spacingRight=3;rotatable=0;labelPosition=right;points=[];portConstraint=eastwest;" vertex="1" parent="o4Rcnv4ikrtxwTk4Mw7k-7">
          <mxGeometry y="182" width="193" height="8" as="geometry" />
        </mxCell>
        <mxCell id="o4Rcnv4ikrtxwTk4Mw7k-15" value="- storeDataToFirebase(): Boolean" style="text;align=left;verticalAlign=top;spacingLeft=4;spacingRight=4;overflow=hidden;rotatable=0;points=[[0,0.5],[1,0.5]];portConstraint=eastwest;" vertex="1" parent="o4Rcnv4ikrtxwTk4Mw7k-7">
          <mxGeometry y="190" width="193" height="26" as="geometry" />
        </mxCell>
        <mxCell id="o4Rcnv4ikrtxwTk4Mw7k-69" value="- sendVerificationEmail(): Boolean" style="text;align=left;verticalAlign=top;spacingLeft=4;spacingRight=4;overflow=hidden;rotatable=0;points=[[0,0.5],[1,0.5]];portConstraint=eastwest;" vertex="1" parent="o4Rcnv4ikrtxwTk4Mw7k-7">
          <mxGeometry y="216" width="193" height="26" as="geometry" />
        </mxCell>
        <mxCell id="o4Rcnv4ikrtxwTk4Mw7k-28" value="" style="endArrow=diamondThin;endFill=1;endSize=24;html=1;rounded=0;exitX=0.5;exitY=0;exitDx=0;exitDy=0;" edge="1" parent="WIyWlLk6GJQsqaUBKTNV-1" source="zkfFHV4jXpPFQw0GAbJ--17">
          <mxGeometry width="160" relative="1" as="geometry">
            <mxPoint x="250" y="-30" as="sourcePoint" />
            <mxPoint x="200" y="-110" as="targetPoint" />
            <Array as="points">
              <mxPoint x="270" y="-50" />
              <mxPoint x="200" y="-50" />
            </Array>
          </mxGeometry>
        </mxCell>
        <mxCell id="o4Rcnv4ikrtxwTk4Mw7k-64" value="OCR" style="swimlane;fontStyle=0;align=center;verticalAlign=top;childLayout=stackLayout;horizontal=1;startSize=26;horizontalStack=0;resizeParent=1;resizeLast=0;collapsible=1;marginBottom=0;rounded=0;shadow=0;strokeWidth=1;" vertex="1" parent="WIyWlLk6GJQsqaUBKTNV-1">
          <mxGeometry x="399" y="-150" width="180" height="112" as="geometry">
            <mxRectangle x="510" y="80" width="160" height="26" as="alternateBounds" />
          </mxGeometry>
        </mxCell>
        <mxCell id="o4Rcnv4ikrtxwTk4Mw7k-65" value="+ Image: string" style="text;align=left;verticalAlign=top;spacingLeft=4;spacingRight=4;overflow=hidden;rotatable=0;points=[[0,0.5],[1,0.5]];portConstraint=eastwest;rounded=0;shadow=0;html=0;" vertex="1" parent="o4Rcnv4ikrtxwTk4Mw7k-64">
          <mxGeometry y="26" width="180" height="26" as="geometry" />
        </mxCell>
        <mxCell id="o4Rcnv4ikrtxwTk4Mw7k-70" value="+ MedicineName: String" style="text;align=left;verticalAlign=top;spacingLeft=4;spacingRight=4;overflow=hidden;rotatable=0;points=[[0,0.5],[1,0.5]];portConstraint=eastwest;rounded=0;shadow=0;html=0;" vertex="1" parent="o4Rcnv4ikrtxwTk4Mw7k-64">
          <mxGeometry y="52" width="180" height="26" as="geometry" />
        </mxCell>
        <mxCell id="o4Rcnv4ikrtxwTk4Mw7k-67" value="" style="line;html=1;strokeWidth=1;align=left;verticalAlign=middle;spacingTop=-1;spacingLeft=3;spacingRight=3;rotatable=0;labelPosition=right;points=[];portConstraint=eastwest;" vertex="1" parent="o4Rcnv4ikrtxwTk4Mw7k-64">
          <mxGeometry y="78" width="180" height="8" as="geometry" />
        </mxCell>
        <mxCell id="o4Rcnv4ikrtxwTk4Mw7k-68" value="- saveSelectedText(): Boolean" style="text;align=left;verticalAlign=top;spacingLeft=4;spacingRight=4;overflow=hidden;rotatable=0;points=[[0,0.5],[1,0.5]];portConstraint=eastwest;" vertex="1" parent="o4Rcnv4ikrtxwTk4Mw7k-64">
          <mxGeometry y="86" width="180" height="26" as="geometry" />
        </mxCell>
        <mxCell id="o4Rcnv4ikrtxwTk4Mw7k-92" value="" style="endArrow=diamondThin;endFill=1;endSize=24;html=1;rounded=0;fontFamily=Helvetica;fontSize=12;fontColor=default;entryX=0;entryY=0.5;entryDx=0;entryDy=0;exitX=0.75;exitY=0;exitDx=0;exitDy=0;" edge="1" parent="WIyWlLk6GJQsqaUBKTNV-1" source="zkfFHV4jXpPFQw0GAbJ--17" target="o4Rcnv4ikrtxwTk4Mw7k-70">
          <mxGeometry width="160" relative="1" as="geometry">
            <mxPoint x="250" y="60" as="sourcePoint" />
            <mxPoint x="410" y="60" as="targetPoint" />
            <Array as="points">
              <mxPoint x="318" y="-85" />
            </Array>
          </mxGeometry>
        </mxCell>
        <mxCell id="o4Rcnv4ikrtxwTk4Mw7k-93" value="1" style="text;html=1;align=center;verticalAlign=middle;resizable=0;points=[];autosize=1;strokeColor=none;fillColor=none;fontSize=12;fontFamily=Helvetica;fontColor=default;" vertex="1" parent="WIyWlLk6GJQsqaUBKTNV-1">
          <mxGeometry x="293" y="-45" width="30" height="30" as="geometry" />
        </mxCell>
        <mxCell id="o4Rcnv4ikrtxwTk4Mw7k-97" value="1" style="text;html=1;align=center;verticalAlign=middle;resizable=0;points=[];autosize=1;strokeColor=none;fillColor=none;fontSize=12;fontFamily=Helvetica;fontColor=default;" vertex="1" parent="WIyWlLk6GJQsqaUBKTNV-1">
          <mxGeometry x="347" y="-110" width="30" height="30" as="geometry" />
        </mxCell>
        <mxCell id="o4Rcnv4ikrtxwTk4Mw7k-98" value="name &amp;amp; image" style="html=1;verticalAlign=bottom;endArrow=open;dashed=1;endSize=8;curved=0;rounded=0;fontFamily=Helvetica;fontSize=12;fontColor=default;exitX=0.517;exitY=1.038;exitDx=0;exitDy=0;exitPerimeter=0;entryX=1;entryY=0.5;entryDx=0;entryDy=0;" edge="1" parent="WIyWlLk6GJQsqaUBKTNV-1" source="o4Rcnv4ikrtxwTk4Mw7k-68" target="zkfFHV4jXpPFQw0GAbJ--18">
          <mxGeometry x="0.2897" relative="1" as="geometry">
            <mxPoint x="460" y="10" as="sourcePoint" />
            <mxPoint x="380" y="10" as="targetPoint" />
            <Array as="points">
              <mxPoint x="492" y="19" />
            </Array>
            <mxPoint as="offset" />
          </mxGeometry>
        </mxCell>
        <mxCell id="o4Rcnv4ikrtxwTk4Mw7k-101" value="SemanticSearch" style="swimlane;fontStyle=1;align=center;verticalAlign=top;childLayout=stackLayout;horizontal=1;startSize=26;horizontalStack=0;resizeParent=1;resizeParentMax=0;resizeLast=0;collapsible=1;marginBottom=0;whiteSpace=wrap;html=1;rounded=0;shadow=0;strokeColor=default;strokeWidth=1;fontFamily=Helvetica;fontSize=12;fontColor=default;fillColor=default;" vertex="1" parent="WIyWlLk6GJQsqaUBKTNV-1">
          <mxGeometry x="-230" y="-519" width="160" height="112" as="geometry" />
        </mxCell>
        <mxCell id="o4Rcnv4ikrtxwTk4Mw7k-102" value="- searchQuery: String" style="text;strokeColor=none;fillColor=none;align=left;verticalAlign=top;spacingLeft=4;spacingRight=4;overflow=hidden;rotatable=0;points=[[0,0.5],[1,0.5]];portConstraint=eastwest;whiteSpace=wrap;html=1;fontSize=12;fontFamily=Helvetica;fontColor=default;" vertex="1" parent="o4Rcnv4ikrtxwTk4Mw7k-101">
          <mxGeometry y="26" width="160" height="26" as="geometry" />
        </mxCell>
        <mxCell id="o4Rcnv4ikrtxwTk4Mw7k-105" value="- medicineScore: Number" style="text;strokeColor=none;fillColor=none;align=left;verticalAlign=top;spacingLeft=4;spacingRight=4;overflow=hidden;rotatable=0;points=[[0,0.5],[1,0.5]];portConstraint=eastwest;whiteSpace=wrap;html=1;fontSize=12;fontFamily=Helvetica;fontColor=default;" vertex="1" parent="o4Rcnv4ikrtxwTk4Mw7k-101">
          <mxGeometry y="52" width="160" height="26" as="geometry" />
        </mxCell>
        <mxCell id="o4Rcnv4ikrtxwTk4Mw7k-103" value="" style="line;strokeWidth=1;fillColor=none;align=left;verticalAlign=middle;spacingTop=-1;spacingLeft=3;spacingRight=3;rotatable=0;labelPosition=right;points=[];portConstraint=eastwest;strokeColor=inherit;rounded=0;shadow=0;fontFamily=Helvetica;fontSize=12;fontColor=default;startSize=26;" vertex="1" parent="o4Rcnv4ikrtxwTk4Mw7k-101">
          <mxGeometry y="78" width="160" height="8" as="geometry" />
        </mxCell>
        <mxCell id="o4Rcnv4ikrtxwTk4Mw7k-104" value="- findSuggestions(): Array" style="text;strokeColor=none;fillColor=none;align=left;verticalAlign=top;spacingLeft=4;spacingRight=4;overflow=hidden;rotatable=0;points=[[0,0.5],[1,0.5]];portConstraint=eastwest;whiteSpace=wrap;html=1;fontSize=12;fontFamily=Helvetica;fontColor=default;" vertex="1" parent="o4Rcnv4ikrtxwTk4Mw7k-101">
          <mxGeometry y="86" width="160" height="26" as="geometry" />
        </mxCell>
        <mxCell id="o4Rcnv4ikrtxwTk4Mw7k-106" value="Search" style="endArrow=open;html=1;endSize=12;startArrow=diamondThin;startSize=14;startFill=0;edgeStyle=orthogonalEdgeStyle;rounded=0;fontFamily=Helvetica;fontSize=12;fontColor=default;exitX=0;exitY=0.5;exitDx=0;exitDy=0;entryX=1;entryY=0.5;entryDx=0;entryDy=0;" edge="1" parent="WIyWlLk6GJQsqaUBKTNV-1" source="o4Rcnv4ikrtxwTk4Mw7k-0" target="o4Rcnv4ikrtxwTk4Mw7k-102">
          <mxGeometry relative="1" as="geometry">
            <mxPoint x="30" y="-340" as="sourcePoint" />
            <mxPoint x="-130" y="-340" as="targetPoint" />
          </mxGeometry>
        </mxCell>
        <mxCell id="o4Rcnv4ikrtxwTk4Mw7k-107" value="0..n" style="edgeLabel;resizable=0;html=1;align=left;verticalAlign=top;rounded=0;shadow=0;strokeColor=default;strokeWidth=1;fontFamily=Helvetica;fontSize=12;fontColor=default;startSize=26;fillColor=default;" connectable="0" vertex="1" parent="o4Rcnv4ikrtxwTk4Mw7k-106">
          <mxGeometry x="-1" relative="1" as="geometry" />
        </mxCell>
        <mxCell id="o4Rcnv4ikrtxwTk4Mw7k-108" value="1" style="edgeLabel;resizable=0;html=1;align=right;verticalAlign=top;rounded=0;shadow=0;strokeColor=default;strokeWidth=1;fontFamily=Helvetica;fontSize=12;fontColor=default;startSize=26;fillColor=default;" connectable="0" vertex="1" parent="o4Rcnv4ikrtxwTk4Mw7k-106">
          <mxGeometry x="1" relative="1" as="geometry" />
        </mxCell>
        <mxCell id="o4Rcnv4ikrtxwTk4Mw7k-109" value="0..*" style="text;html=1;align=center;verticalAlign=middle;resizable=0;points=[];autosize=1;strokeColor=none;fillColor=none;fontSize=12;fontFamily=Helvetica;fontColor=default;" vertex="1" parent="WIyWlLk6GJQsqaUBKTNV-1">
          <mxGeometry x="-60" y="-502" width="40" height="30" as="geometry" />
        </mxCell>
        <mxCell id="o4Rcnv4ikrtxwTk4Mw7k-114" value="1..*" style="text;html=1;align=center;verticalAlign=middle;resizable=0;points=[];autosize=1;strokeColor=none;fillColor=none;fontSize=12;fontFamily=Helvetica;fontColor=default;" vertex="1" parent="WIyWlLk6GJQsqaUBKTNV-1">
          <mxGeometry x="30" y="-467" width="40" height="30" as="geometry" />
        </mxCell>
        <mxCell id="o4Rcnv4ikrtxwTk4Mw7k-115" value="register" style="endArrow=open;html=1;endSize=12;startArrow=diamondThin;startSize=14;startFill=0;edgeStyle=orthogonalEdgeStyle;rounded=0;fontFamily=Helvetica;fontSize=12;fontColor=default;exitX=1;exitY=0.5;exitDx=0;exitDy=0;entryX=0;entryY=0.5;entryDx=0;entryDy=0;" edge="1" parent="WIyWlLk6GJQsqaUBKTNV-1" source="o4Rcnv4ikrtxwTk4Mw7k-0" target="o4Rcnv4ikrtxwTk4Mw7k-9">
          <mxGeometry relative="1" as="geometry">
            <mxPoint x="50" y="-330" as="sourcePoint" />
            <mxPoint x="210" y="-330" as="targetPoint" />
          </mxGeometry>
        </mxCell>
        <mxCell id="o4Rcnv4ikrtxwTk4Mw7k-116" value="1..*" style="edgeLabel;resizable=0;html=1;align=left;verticalAlign=top;rounded=0;shadow=0;strokeColor=default;strokeWidth=1;fontFamily=Helvetica;fontSize=12;fontColor=default;startSize=26;fillColor=default;" connectable="0" vertex="1" parent="o4Rcnv4ikrtxwTk4Mw7k-115">
          <mxGeometry x="-1" relative="1" as="geometry" />
        </mxCell>
        <mxCell id="o4Rcnv4ikrtxwTk4Mw7k-117" value="1" style="edgeLabel;resizable=0;html=1;align=right;verticalAlign=top;rounded=0;shadow=0;strokeColor=default;strokeWidth=1;fontFamily=Helvetica;fontSize=12;fontColor=default;startSize=26;fillColor=default;" connectable="0" vertex="1" parent="o4Rcnv4ikrtxwTk4Mw7k-115">
          <mxGeometry x="1" relative="1" as="geometry">
            <mxPoint x="-18" y="-25" as="offset" />
          </mxGeometry>
        </mxCell>
        <mxCell id="o4Rcnv4ikrtxwTk4Mw7k-118" value="login" style="endArrow=open;html=1;endSize=12;startArrow=diamondThin;startSize=14;startFill=0;edgeStyle=orthogonalEdgeStyle;rounded=0;fontFamily=Helvetica;fontSize=12;fontColor=default;exitX=1;exitY=0.5;exitDx=0;exitDy=0;entryX=0;entryY=0.5;entryDx=0;entryDy=0;" edge="1" parent="WIyWlLk6GJQsqaUBKTNV-1" source="o4Rcnv4ikrtxwTk4Mw7k-20" target="mE6UJYv_CZvFH5wL21DU-7">
          <mxGeometry relative="1" as="geometry">
            <mxPoint x="50" y="-330" as="sourcePoint" />
            <mxPoint x="210" y="-330" as="targetPoint" />
          </mxGeometry>
        </mxCell>
        <mxCell id="o4Rcnv4ikrtxwTk4Mw7k-119" value="1..n" style="edgeLabel;resizable=0;html=1;align=left;verticalAlign=top;rounded=0;shadow=0;strokeColor=default;strokeWidth=1;fontFamily=Helvetica;fontSize=12;fontColor=default;startSize=26;fillColor=default;" connectable="0" vertex="1" parent="o4Rcnv4ikrtxwTk4Mw7k-118">
          <mxGeometry x="-1" relative="1" as="geometry" />
        </mxCell>
        <mxCell id="o4Rcnv4ikrtxwTk4Mw7k-120" value="1" style="edgeLabel;resizable=0;html=1;align=right;verticalAlign=top;rounded=0;shadow=0;strokeColor=default;strokeWidth=1;fontFamily=Helvetica;fontSize=12;fontColor=default;startSize=26;fillColor=default;" connectable="0" vertex="1" parent="o4Rcnv4ikrtxwTk4Mw7k-118">
          <mxGeometry x="1" relative="1" as="geometry">
            <mxPoint x="-18" y="-23" as="offset" />
          </mxGeometry>
        </mxCell>
        <mxCell id="o4Rcnv4ikrtxwTk4Mw7k-121" value="" style="endArrow=diamondThin;endFill=0;endSize=24;html=1;rounded=0;fontFamily=Helvetica;fontSize=12;fontColor=default;exitX=0;exitY=0.5;exitDx=0;exitDy=0;entryX=0.506;entryY=1.038;entryDx=0;entryDy=0;entryPerimeter=0;" edge="1" parent="WIyWlLk6GJQsqaUBKTNV-1" source="zkfFHV4jXpPFQw0GAbJ--18">
          <mxGeometry width="160" relative="1" as="geometry">
            <mxPoint x="175" y="106.5" as="sourcePoint" />
            <mxPoint x="-149.03999999999996" y="-407.01199999999994" as="targetPoint" />
            <Array as="points">
              <mxPoint x="-149" y="20" />
            </Array>
          </mxGeometry>
        </mxCell>
      </root>
    </mxGraphModel>
  </diagram>
</mxfile>
